<?xml version="1.0" encoding="UTF-8" standalone="no"?>
<!-- Created with Inkscape (http://www.inkscape.org/) -->

<svg
   version="1.1"
   id="svg1"
   width="73.95282"
   height="73.474281"
   viewBox="0 0 73.95282 73.474281"
   sodipodi:docname="openeo_vector_glyph_lightmono.svg"
   inkscape:version="1.3.2 (091e20e, 2023-11-25, custom)"
   xmlns:inkscape="http://www.inkscape.org/namespaces/inkscape"
   xmlns:sodipodi="http://sodipodi.sourceforge.net/DTD/sodipodi-0.dtd"
   xmlns="http://www.w3.org/2000/svg"
   xmlns:svg="http://www.w3.org/2000/svg">
  <defs
     id="defs1" />
  <sodipodi:namedview
     id="namedview1"
     pagecolor="#ffffff"
     bordercolor="#000000"
     borderopacity="0.25"
     inkscape:showpageshadow="2"
     inkscape:pageopacity="0.0"
     inkscape:pagecheckerboard="0"
     inkscape:deskcolor="#d1d1d1"
     showgrid="false"
     inkscape:zoom="16"
     inkscape:cx="23"
     inkscape:cy="30.84375"
     inkscape:window-width="3840"
     inkscape:window-height="2054"
     inkscape:window-x="3829"
     inkscape:window-y="-11"
     inkscape:window-maximized="1"
     inkscape:current-layer="g1" />
  <g
     inkscape:groupmode="layer"
     inkscape:label="Image"
     id="g1"
     transform="translate(-11.426172,-12.997558)">
    <path
       style="fill:#f9f9f9;stroke-width:1.27161"
       d="m 28.645572,34.945692 c 1.147881,-1.798004 4.041226,0.04538 2.990515,1.925479 -1.121623,2.006952 -4.468246,0.38918 -2.990515,-1.925479 z"
       id="path5"
       sodipodi:nodetypes="sss" />
    <path
       style="fill:#f9f9f9;stroke-width:1.09124"
       d="m 21.039411,49.371501 c 1.964546,0 2.689594,3.689807 0.04208,3.689807 -2.465808,0 -2.105558,-3.689807 -0.04208,-3.689807 z"
       id="path4"
       sodipodi:nodetypes="sss" />
    <path
       style="fill:#f9f9f9"
       d="m 38.24,85.032522 c -0.88,-0.244353 -1.70255,-0.450634 -1.82789,-0.458402 -0.125339,-0.0078 -0.269339,-4.906401 -0.32,-10.885853 L 36,62.816537 l -2.16,-2.1763 -2.16,-2.1763 v -8.802975 -8.802974 l 0.936504,-0.553207 c 1.440884,-0.85115 2.408992,-2.439367 2.263496,-4.354944 -0.11783,-1.551331 -0.442822,-2.341202 -1.2,-3.320941 -2.105717,-2.724662 -5.941241,-1.871562 -7.803936,0.953482 -1.202591,1.823902 -0.50808,5.193111 1.342043,6.510515 l 0.899204,0.640289 0.101344,9.58524 0.101345,9.58524 2.173878,2.190184 2.173879,2.180544 c -0.02391,1.7359 -0.07675,3.480221 -0.04315,5.217587 L 27.6,64.706306 22.72,59.959198 v -1.923315 -1.923314 l 1.138863,-0.868653 c 4.027826,-3.072173 2.091886,-8.867334 -2.970705,-8.892687 -4.714202,-0.02361 -6.477273,6.264707 -2.481989,8.852468 l 1.105909,0.716302 0.004,2.795578 0.004,2.795578 5.614944,5.524422 c 3.08822,3.038431 6.036949,5.740421 6.552733,6.004421 l 0.937789,0.739043 0.0073,4.467461 0.0073,4.726503 -1.36,-0.693159 C 2.6534384,67.689577 5.622258,25.946912 36.064164,15.012793 c 5.478076,-1.967615 17.860982,-2.735647 19.393758,-1.202871 0.437019,0.437018 -7.894648,17.112657 -16.962513,33.950077 -1.713791,3.182208 -2.515226,4.044836 -2.506194,5.191205 L 36,54.319999 h 7.101894 c 8.758863,0 8.14147,-0.78047 5.822152,7.359999 -1.053035,3.696 -2.850421,10.088635 -3.994192,14.205855 -1.143771,4.11722 -2.281547,7.969219 -2.52839,8.559999 l -0.448807,1.074146 -1.056328,-0.0216 C 40.315348,85.486521 39.12,85.276876 38.24,85.032522 Z"
       id="path3"
       sodipodi:nodetypes="scscccccsssssccccccccccssscccsscccssssscsssscss" />
    <path
       style="fill:#f9f9f9"
       d="m 47.161335,86.014628 c -0.258211,-0.672885 1.881953,-4.610265 11.139859,-20.49463 3.976339,-6.822453 5.087638,-8.683653 9.805185,-16.421696 1.965492,-3.223933 3.330553,-5.620651 3.573621,-6.48 0.05609,-0.19832 0,-0.618303 0,-0.618303 l -2.32,-0.01252 c -1.276,-0.0069 -5.094438,-0.0015 -8.485418,0.01205 -7.146649,0.02848 -6.859439,0.180248 -5.861165,-3.097174 C 55.865935,36.103468 57.967496,29.095257 58.882465,26 c 0.390197,-1.32 0.915367,-3.192 1.167046,-4.16 1.808599,-6.956193 1.549915,-6.740672 5.524187,-4.602436 34.058833,18.324313 21.498624,68.930039 -17.183741,69.234178 -0.629612,0.0049 -1.121545,-0.178076 -1.228622,-0.457114 z"
       id="path1"
       sodipodi:nodetypes="sssscccsssscs" />
  </g>
</svg>
